<?xml version="1.0" encoding="UTF-8"?>
<svg xmlns="http://www.w3.org/2000/svg" xmlns:xlink="http://www.w3.org/1999/xlink" width="65px" height="65px" viewBox="0 0 65 65" version="1.1">
<g id="surface1">
<path style=" stroke:none;fill-rule:nonzero;fill:rgb(27.45098%,26.27451%,25.882353%);fill-opacity:1;" d="M 4.621094 32.5 C 4.621094 43.535156 11.035156 53.070312 20.332031 57.589844 L 7.035156 21.152344 C 5.488281 24.621094 4.621094 28.457031 4.621094 32.5 Z M 4.621094 32.5 "/>
<path style=" stroke:none;fill-rule:nonzero;fill:rgb(27.45098%,26.27451%,25.882353%);fill-opacity:1;" d="M 51.324219 31.09375 C 51.324219 27.648438 50.085938 25.261719 49.023438 23.402344 C 47.609375 21.105469 46.285156 19.160156 46.285156 16.863281 C 46.285156 14.300781 48.230469 11.917969 50.96875 11.917969 C 51.089844 11.917969 51.207031 11.933594 51.328125 11.9375 C 46.367188 7.394531 39.757812 4.621094 32.5 4.621094 C 22.761719 4.621094 14.191406 9.617188 9.207031 17.1875 C 9.859375 17.207031 10.476562 17.21875 11 17.21875 C 13.917969 17.21875 18.429688 16.867188 18.429688 16.867188 C 19.933594 16.777344 20.109375 18.984375 18.609375 19.164062 C 18.609375 19.164062 17.097656 19.339844 15.417969 19.429688 L 25.570312 49.628906 L 31.671875 31.328125 L 27.328125 19.425781 C 25.828125 19.339844 24.40625 19.160156 24.40625 19.160156 C 22.902344 19.074219 23.078125 16.777344 24.582031 16.863281 C 24.582031 16.863281 29.1875 17.21875 31.925781 17.21875 C 34.839844 17.21875 39.355469 16.863281 39.355469 16.863281 C 40.859375 16.777344 41.035156 18.984375 39.535156 19.160156 C 39.535156 19.160156 38.019531 19.339844 36.34375 19.425781 L 46.417969 49.398438 L 49.199219 40.105469 C 50.40625 36.25 51.324219 33.480469 51.324219 31.09375 Z M 51.324219 31.09375 "/>
<path style=" stroke:none;fill-rule:nonzero;fill:rgb(27.45098%,26.27451%,25.882353%);fill-opacity:1;" d="M 32.988281 34.9375 L 24.625 59.246094 C 27.121094 59.980469 29.765625 60.382812 32.5 60.382812 C 35.746094 60.382812 38.863281 59.820312 41.757812 58.800781 C 41.683594 58.679688 41.617188 58.554688 41.5625 58.417969 Z M 32.988281 34.9375 "/>
<path style=" stroke:none;fill-rule:nonzero;fill:rgb(27.45098%,26.27451%,25.882353%);fill-opacity:1;" d="M 56.964844 19.121094 C 57.085938 20.011719 57.152344 20.964844 57.152344 21.988281 C 57.152344 24.820312 56.625 28 55.03125 31.976562 L 46.515625 56.597656 C 54.804688 51.765625 60.378906 42.785156 60.378906 32.5 C 60.382812 27.652344 59.144531 23.09375 56.964844 19.121094 Z M 56.964844 19.121094 "/>
<path style=" stroke:none;fill-rule:nonzero;fill:rgb(27.45098%,26.27451%,25.882353%);fill-opacity:1;" d="M 32.5 0 C 14.582031 0 0 14.578125 0 32.5 C 0 50.421875 14.582031 65 32.5 65 C 50.421875 65 65.003906 50.421875 65.003906 32.5 C 65.003906 14.578125 50.421875 0 32.5 0 Z M 32.5 63.511719 C 15.402344 63.511719 1.492188 49.597656 1.492188 32.5 C 1.492188 15.402344 15.402344 1.488281 32.5 1.488281 C 49.597656 1.488281 63.507812 15.402344 63.507812 32.5 C 63.507812 49.597656 49.597656 63.511719 32.5 63.511719 Z M 32.5 63.511719 "/>
</g>
</svg>
